<svg height="512pt" viewBox="0 0 512 512.0005" width="512pt" xmlns="http://www.w3.org/2000/svg"><path d="m165 120h30c8.285156 0 15-6.714844 15-15s-6.714844-15-15-15h-15v-15c0-8.285156-6.714844-15-15-15s-15 6.714844-15 15v17.582031c-17.457031 6.191407-30 22.863281-30 42.417969 0 24.8125 20.1875 45 45 45 8.269531 0 15 6.730469 15 15 0 8.273438-6.730469 15-15 15h-30c-8.285156 0-15 6.714844-15 15s6.714844 15 15 15h15v15c0 8.285156 6.714844 15 15 15s15-6.714844 15-15v-17.578125c17.460938-6.195313 30-22.867187 30-42.421875 0-24.8125-20.1875-45-45-45-8.269531 0-15-6.726562-15-15 0-8.269531 6.730469-15 15-15zm0 0"/><path d="m125.605469 406.394531c-5.855469-5.859375-15.351563-5.859375-21.210938 0s-5.859375 15.355469 0 21.214844l12.890625 12.890625c-49.488281-8.445312-87.285156-51.636719-87.285156-103.5 0-8.285156-6.714844-15-15-15s-15 6.714844-15 15c0 69.253906 52.421875 126.484375 119.664062 134.125l-15.269531 15.269531c-5.859375 5.859375-5.859375 15.355469 0 21.214844 2.925781 2.925781 6.765625 4.390625 10.605469 4.390625s7.679688-1.464844 10.605469-4.394531l40-40c5.859375-5.855469 5.859375-15.355469 0-21.210938zm0 0"/><path d="m386.394531 105.609375c2.925781 2.925781 6.765625 4.390625 10.605469 4.390625s7.679688-1.464844 10.605469-4.394531c5.859375-5.855469 5.859375-15.355469 0-21.210938l-12.890625-12.890625c49.492187 8.445313 87.285156 51.636719 87.285156 103.496094 0 8.285156 6.714844 15 15 15s15-6.714844 15-15c0-69.253906-52.417969-126.484375-119.664062-134.125l15.269531-15.269531c5.859375-5.855469 5.859375-15.355469 0-21.210938-5.855469-5.859375-15.351563-5.859375-21.210938 0l-40 40c-5.859375 5.855469-5.859375 15.355469 0 21.210938zm0 0"/><path d="m347 182c-6.082031 0-12.082031.339844-17.996094.984375.648438-5.960937.996094-11.96875.996094-17.984375 0-90.980469-74.019531-165-165-165s-165 74.019531-165 165 74.019531 165 165 165c6.015625 0 12.019531-.34375 17.984375-.996094-.644531 5.914063-.984375 11.914063-.984375 17.996094 0 90.980469 74.019531 165 165 165s165-74.019531 165-165-74.019531-165-165-165zm-182 118c-74.4375 0-135-60.558594-135-135s60.5625-135 135-135 135 60.5625 135 135c0 8.234375-.75 16.441406-2.226562 24.5-51.460938 16.121094-92.152344 56.8125-108.273438 108.273438-8.058594 1.476562-16.265625 2.226562-24.5 2.226562zm182 182c-74.4375 0-135-60.558594-135-135 0-74.4375 60.5625-135 135-135s135 60.5625 135 135c0 74.441406-60.558594 135-135 135zm0 0"/><path d="m352 272c13.785156 0 25 11.214844 25 25 0 8.285156 6.714844 15 15 15s15-6.714844 15-15c0-30.328125-24.671875-55-55-55s-55 24.671875-55 55v5h-15c-8.285156 0-15 6.714844-15 15s6.714844 15 15 15h15v30h-15c-8.285156 0-15 6.714844-15 15s6.714844 15 15 15h15v5c0 30.328125 24.671875 55 55 55s55-24.671875 55-55c0-8.285156-6.714844-15-15-15s-15 6.714844-15 15c0 13.785156-11.214844 25-25 25s-25-11.214844-25-25v-5h15c8.285156 0 15-6.714844 15-15s-6.714844-15-15-15h-15v-30h15c8.285156 0 15-6.714844 15-15s-6.714844-15-15-15h-15v-5c0-13.785156 11.214844-25 25-25zm0 0"/></svg>