<?xml version="1.0" encoding="UTF-8"?>
<svg width="2236px" height="640px" viewBox="0 0 2236 640" version="1.1" xmlns="http://www.w3.org/2000/svg" xmlns:xlink="http://www.w3.org/1999/xlink">
    <!-- Generator: Sketch 51 (57462) - http://www.bohemiancoding.com/sketch -->
    <title>logo-exchangily-purple</title>
    <desc>Created with Sketch.</desc>
    <defs>
        <linearGradient x1="3.85540094%" y1="3.81760293%" x2="101.999998%" y2="100.999999%" id="linearGradient-1">
            <stop stop-color="#F9AA0F" offset="0%"></stop>
            <stop stop-color="#6303E4" offset="100%"></stop>
        </linearGradient>
        <linearGradient x1="3.85540094%" y1="3.81760293%" x2="101.999998%" y2="100.999999%" id="linearGradient-2">
            <stop stop-color="#AE2347" offset="0%"></stop>
            <stop stop-color="#6303E4" offset="100%"></stop>
        </linearGradient>
    </defs>
    <g id="logo-exchangily-purple" stroke="none" stroke-width="1" fill="none" fill-rule="evenodd">
        <path d="M434.270378,251.304237 L401.821931,285.375085 L334.321808,214.5 L396.289063,214.5 L399.218703,214.5 L434.270378,251.304237 Z M534.321931,214.5 L599.218825,214.5 L499.218764,319.5 L599.218825,424.5 L534.321931,424.5 L434.32187,319.5 L534.321931,214.5 Z M334.321808,424.5 L401.821931,353.624915 L434.270378,387.695763 L399.218703,424.5 L396.289063,424.5 L334.321808,424.5 Z M269.321931,424.5 L199,424.5 L199,376.400069 L315.131417,376.400069 L269.321931,424.5 Z M346.417249,343.549965 L199,343.549965 L199,295.450035 L346.417249,295.450035 L369.321992,319.5 L346.417249,343.549965 Z M315.131417,262.599931 L199,262.599931 L199,214.5 L269.321931,214.5 L315.131417,262.599931 Z" id="Combined-Shape-Copy" fill="url(#linearGradient-1)" fill-rule="nonzero"></path>
        <g id="Group" transform="translate(717.000000, 185.000000)">
            <path d="M70.5386461,207.874843 C60.7465972,207.874843 51.6266884,206.194859 43.1786461,202.834843 C34.7306039,199.474826 27.3386778,194.626874 21.0026461,188.290843 C14.6666144,181.954811 9.72266388,174.226888 6.17064612,165.106843 C2.61862836,155.986797 0.842646116,145.570901 0.842646116,133.858843 C0.842646116,122.338785 2.66662788,111.970889 6.31464612,102.754843 C9.96266436,93.5387966 14.8106159,85.7628744 20.8586461,79.4268427 C26.9066764,73.090811 33.8666068,68.19486 41.7386461,64.7388427 C49.6106855,61.2828254 57.6746048,59.5548427 65.9306461,59.5548427 C75.5306941,59.5548427 83.9786096,61.1868264 91.2746461,64.4508427 C98.5706826,67.714859 104.666622,72.3228129 109.562646,78.2748427 C114.458671,84.2268725 118.154634,91.3308014 120.650646,99.5868427 C123.146659,107.842884 124.394646,116.866794 124.394646,126.658843 C124.394646,129.922859 124.250648,132.994828 123.962646,135.874843 C123.674645,138.754857 123.338648,141.058834 122.954646,142.786843 L33.0986461,142.786843 C34.6346538,155.458906 39.0986092,165.202809 46.4906461,172.018843 C53.8826831,178.834877 63.3385885,182.242843 74.8586461,182.242843 C81.0026768,182.242843 86.7146197,181.330852 91.9946461,179.506843 C97.2746725,177.682834 102.50662,175.138859 107.690646,171.874843 L118.922646,192.610843 C112.202613,197.026865 104.714687,200.674828 96.4586461,203.554843 C88.2026048,206.434857 79.5626912,207.874843 70.5386461,207.874843 Z M32.8106461,120.322843 L95.5946461,120.322843 C95.5946461,109.378788 93.2426696,100.786874 88.5386461,94.5468427 C83.8346226,88.3068115 76.5866951,85.1868427 66.7946461,85.1868427 C58.3466039,85.1868427 50.9546778,88.1628129 44.6186461,94.1148427 C38.2826144,100.066872 34.3466538,108.802785 32.8106461,120.322843 Z M353.642646,207.874843 C344.042598,207.874843 335.066688,206.242859 326.714646,202.978843 C318.362604,199.714826 311.114677,194.914874 304.970646,188.578843 C298.826615,182.242811 294.026663,174.466889 290.570646,165.250843 C287.114629,156.034797 285.386646,145.570901 285.386646,133.858843 C285.386646,122.146784 287.306627,111.682889 291.146646,102.466843 C294.986665,93.2507966 300.170613,85.4748744 306.698646,79.1388427 C313.226679,72.802811 320.762603,67.9548595 329.306646,64.5948427 C337.850689,61.2348259 346.826599,59.5548427 356.234646,59.5548427 C365.450692,59.5548427 373.370613,61.0908273 379.994646,64.1628427 C386.618679,67.2348581 392.52262,70.9788206 397.706646,75.3948427 L381.578646,96.9948427 C377.738627,93.7308264 373.946665,91.1868518 370.202646,89.3628427 C366.458627,87.5388336 362.378668,86.6268427 357.962646,86.6268427 C346.442589,86.6268427 337.130682,90.8988 330.026646,99.4428427 C322.922611,107.986885 319.370646,119.458771 319.370646,133.858843 C319.370646,148.066914 322.874611,159.4428 329.882646,167.986843 C336.890681,176.530885 345.96259,180.802843 357.098646,180.802843 C362.666674,180.802843 367.898622,179.602855 372.794646,177.202843 C377.690671,174.802831 382.154626,171.970859 386.186646,168.706843 L399.722646,190.594843 C393.002613,196.354871 385.658686,200.674828 377.690646,203.554843 C369.722606,206.434857 361.706686,207.874843 353.642646,207.874843 Z M427.658646,204.418843 L427.658646,1.0908427 L460.778646,1.0908427 L460.778646,53.5068427 L459.626646,80.8668427 C465.578676,75.2988149 472.15461,70.3548643 479.354646,66.0348427 C486.554682,61.7148211 495.050597,59.5548427 504.842646,59.5548427 C520.010722,59.5548427 531.050612,64.4027942 537.962646,74.0988427 C544.874681,83.7948912 548.330646,97.6667525 548.330646,115.714843 L548.330646,204.418843 L515.210646,204.418843 L515.210646,120.034843 C515.210646,108.322784 513.482663,100.066867 510.026646,95.2668427 C506.570629,90.4668187 500.906685,88.0668427 493.034646,88.0668427 C486.890615,88.0668427 481.46667,89.5548278 476.762646,92.5308427 C472.058623,95.5068576 466.730676,99.8748139 460.778646,105.634843 L460.778646,204.418843 L427.658646,204.418843 Z M622.634646,207.874843 C610.154584,207.874843 600.074685,204.082881 592.394646,196.498843 C584.714608,188.914805 580.874646,178.882905 580.874646,166.402843 C580.874646,158.914805 582.45863,152.242872 585.626646,146.386843 C588.794662,140.530813 593.786612,135.490864 600.602646,131.266843 C607.41868,127.042822 616.058594,123.490857 626.522646,120.610843 C636.986698,117.730828 649.514573,115.52285 664.106646,113.986843 C663.914645,110.338824 663.38665,106.834859 662.522646,103.474843 C661.658642,100.114826 660.218656,97.1388557 658.202646,94.5468427 C656.186636,91.9548297 653.546662,89.9388499 650.282646,88.4988427 C647.01863,87.0588355 642.98667,86.3388427 638.186646,86.3388427 C631.274612,86.3388427 624.506679,87.6828293 617.882646,90.3708427 C611.258613,93.0588561 604.778678,96.3228235 598.442646,100.162843 L586.346646,77.9868427 C594.218685,72.9948177 603.050597,68.6748609 612.842646,65.0268427 C622.634695,61.3788245 633.194589,59.5548427 644.522646,59.5548427 C662.186734,59.5548427 675.386602,64.7867904 684.122646,75.2508427 C692.85869,85.714895 697.226646,100.834744 697.226646,120.610843 L697.226646,204.418843 L669.866646,204.418843 L667.562646,188.866843 L666.410646,188.866843 C660.074614,194.24287 653.306682,198.754824 646.106646,202.402843 C638.90661,206.050861 631.082688,207.874843 622.634646,207.874843 Z M633.290646,181.954843 C639.050675,181.954843 644.282623,180.610856 648.986646,177.922843 C653.69067,175.234829 658.730619,171.394868 664.106646,166.402843 L664.106646,134.722843 C654.506598,135.874848 646.442679,137.410833 639.914646,139.330843 C633.386613,141.250852 628.106666,143.410831 624.074646,145.810843 C620.042626,148.210855 617.162655,150.946827 615.434646,154.018843 C613.706637,157.090858 612.842646,160.354825 612.842646,163.810843 C612.842646,170.146874 614.762627,174.754828 618.602646,177.634843 C622.442665,180.514857 627.338616,181.954843 633.290646,181.954843 Z M736.970646,204.418843 L736.970646,63.0108427 L764.330646,63.0108427 L766.634646,82.0188427 L767.786646,82.0188427 C774.122678,75.874812 780.986609,70.5948648 788.378646,66.1788427 C795.770683,61.7628206 804.362597,59.5548427 814.154646,59.5548427 C829.322722,59.5548427 840.362612,64.4027942 847.274646,74.0988427 C854.186681,83.7948912 857.642646,97.6667525 857.642646,115.714843 L857.642646,204.418843 L824.522646,204.418843 L824.522646,120.034843 C824.522646,108.322784 822.794663,100.066867 819.338646,95.2668427 C815.882629,90.4668187 810.218685,88.0668427 802.346646,88.0668427 C796.202615,88.0668427 790.77867,89.5548278 786.074646,92.5308427 C781.370623,95.5068576 776.042676,99.8748139 770.090646,105.634843 L770.090646,204.418843 L736.970646,204.418843 Z M947.498646,266.914843 C939.050604,266.914843 931.226682,266.14685 924.026646,264.610843 C916.82661,263.074835 910.634672,260.770858 905.450646,257.698843 C900.26662,254.626827 896.186661,250.786866 893.210646,246.178843 C890.234631,241.57082 888.746646,236.194873 888.746646,230.050843 C888.746646,224.098813 890.474629,218.578868 893.930646,213.490843 C897.386663,208.402817 902.378613,203.842863 908.906646,199.810843 L908.906646,198.658843 C905.258628,196.354831 902.234658,193.282862 899.834646,189.442843 C897.434634,185.602823 896.234646,180.802871 896.234646,175.042843 C896.234646,169.474815 897.81863,164.434865 900.986646,159.922843 C904.154662,155.41082 907.754626,151.714857 911.786646,148.834843 L911.786646,147.682843 C906.986622,144.034824 902.714665,138.994875 898.970646,132.562843 C895.226627,126.130811 893.354646,118.690885 893.354646,110.242843 C893.354646,102.178802 894.890631,94.9788744 897.962646,88.6428427 C901.034661,82.306811 905.114621,76.9788643 910.202646,72.6588427 C915.290672,68.3388211 921.194613,65.0748537 927.914646,62.8668427 C934.63468,60.6588317 941.738609,59.5548427 949.226646,59.5548427 C953.066665,59.5548427 956.762628,59.8908393 960.314646,60.5628427 C963.866664,61.2348461 967.082632,62.0508379 969.962646,63.0108427 L1020.65065,63.0108427 L1020.65065,87.4908427 L994.730646,87.4908427 C997.034658,90.1788561 998.954638,93.5868221 1000.49065,97.7148427 C1002.02665,101.842863 1002.79465,106.402818 1002.79465,111.394843 C1002.79465,119.266882 1001.40266,126.178813 998.618646,132.130843 C995.834632,138.082872 992.04267,143.074823 987.242646,147.106843 C982.442622,151.138863 976.778679,154.210832 970.250646,156.322843 C963.722613,158.434853 956.714684,159.490843 949.226646,159.490843 C946.154631,159.490843 942.986662,159.202846 939.722646,158.626843 C936.45863,158.05084 933.194662,157.090849 929.930646,155.746843 C927.818636,157.666852 926.138652,159.586833 924.890646,161.506843 C923.64264,163.426852 923.018646,166.018826 923.018646,169.282843 C923.018646,173.314863 924.698629,176.482831 928.058646,178.786843 C931.418663,181.090854 937.418603,182.242843 946.058646,182.242843 L971.114646,182.242843 C988.202732,182.242843 1001.1146,184.978815 1009.85065,190.450843 C1018.58669,195.92287 1022.95465,204.802781 1022.95465,217.090843 C1022.95465,224.002877 1021.17866,230.530812 1017.62665,236.674843 C1014.07463,242.818873 1009.03468,248.098821 1002.50665,252.514843 C995.978613,256.930865 988.058693,260.43483 978.746646,263.026843 C969.4346,265.618856 959.018704,266.914843 947.498646,266.914843 Z M949.226646,138.754843 C955.94668,138.754843 961.706622,136.306867 966.506646,131.410843 C971.30667,126.514818 973.706646,119.458889 973.706646,110.242843 C973.706646,101.410799 971.35467,94.5468672 966.650646,89.6508427 C961.946623,84.7548182 956.138681,82.3068427 949.226646,82.3068427 C942.314612,82.3068427 936.45867,84.7068187 931.658646,89.5068427 C926.858622,94.3068667 924.458646,101.218798 924.458646,110.242843 C924.458646,119.458889 926.858622,126.514818 931.658646,131.410843 C936.45867,136.306867 942.314612,138.754843 949.226646,138.754843 Z M952.682646,245.314843 C964.202704,245.314843 973.466611,243.058865 980.474646,238.546843 C987.482681,234.03482 990.986646,228.706873 990.986646,222.562843 C990.986646,216.994815 988.826668,213.250852 984.506646,211.330843 C980.186625,209.410833 973.994686,208.450843 965.930646,208.450843 L946.634646,208.450843 C938.954608,208.450843 932.522672,207.778849 927.338646,206.434843 C920.04261,212.002871 916.394646,218.242808 916.394646,225.154843 C916.394646,231.490874 919.610614,236.434825 926.042646,239.986843 C932.474678,243.53886 941.354589,245.314843 952.682646,245.314843 Z M1048.01065,204.418843 L1048.01065,63.0108427 L1081.13065,63.0108427 L1081.13065,204.418843 L1048.01065,204.418843 Z M1064.71465,38.2428427 C1058.76262,38.2428427 1053.86667,36.51486 1050.02665,33.0588427 C1046.18663,29.6028254 1044.26665,25.0908705 1044.26665,19.5228427 C1044.26665,13.9548149 1046.18663,9.39486046 1050.02665,5.8428427 C1053.86667,2.29082494 1058.76262,0.514842697 1064.71465,0.514842697 C1070.66668,0.514842697 1075.56263,2.29082494 1079.40265,5.8428427 C1083.24267,9.39486046 1085.16265,13.9548149 1085.16265,19.5228427 C1085.16265,25.0908705 1083.24267,29.6028254 1079.40265,33.0588427 C1075.56263,36.51486 1070.66668,38.2428427 1064.71465,38.2428427 Z M1155.72265,207.874843 C1143.81859,207.874843 1135.46667,204.322878 1130.66665,197.218843 C1125.86662,190.114807 1123.46665,180.418904 1123.46665,168.130843 L1123.46665,1.0908427 L1156.58665,1.0908427 L1156.58665,169.858843 C1156.58665,173.890863 1157.35464,176.722835 1158.89065,178.354843 C1160.42665,179.986851 1162.05864,180.802843 1163.78665,180.802843 L1165.94665,180.802843 C1166.61865,180.802843 1167.62664,180.610845 1168.97065,180.226843 L1173.29065,204.994843 C1168.87462,206.914852 1163.01868,207.874843 1155.72265,207.874843 Z M1211.01865,262.594843 C1207.17863,262.594843 1203.81866,262.354845 1200.93865,261.874843 C1198.05863,261.39484 1195.27466,260.674847 1192.58665,259.714843 L1198.63465,233.794843 C1199.97865,234.178845 1201.56264,234.61084 1203.38665,235.090843 C1205.21066,235.570845 1206.98664,235.810843 1208.71465,235.810843 C1216.20268,235.810843 1222.20262,233.554865 1226.71465,229.042843 C1231.22667,224.53082 1234.63463,218.722878 1236.93865,211.618843 L1239.53065,202.690843 L1183.94665,63.0108427 L1217.64265,63.0108427 L1242.12265,132.418843 C1244.23466,138.562873 1246.29864,145.042809 1248.31465,151.858843 C1250.33066,158.674877 1252.39464,165.442809 1254.50665,172.162843 L1255.65865,172.162843 C1257.38665,165.63481 1259.16264,158.962877 1260.98665,152.146843 C1262.81066,145.330809 1264.58664,138.754874 1266.31465,132.418843 L1287.62665,63.0108427 L1319.59465,63.0108427 L1268.33065,210.754843 C1265.45063,218.818883 1262.28266,226.018811 1258.82665,232.354843 C1255.37063,238.690874 1251.38667,244.11482 1246.87465,248.626843 C1242.36262,253.138865 1237.17868,256.594831 1231.32265,258.994843 C1225.46662,261.394855 1218.69868,262.594843 1211.01865,262.594843 Z" id="exchangily-copy-2" fill="#393939"></path>
            <path d="M204.672282,109.394959 L242.257682,59.3697888 L278.521751,59.3697888 L222.813032,133.516615 L324.571019,268.82366 L288.30695,268.82366 L204.689713,157.638272 L166.939722,207.882508 L130.675653,207.882508 L186.548963,133.516615 L98.9335938,17.0149337 L135.197663,17.0149337 L204.672282,109.394959 Z" id="Combined-Shape-Copy-2" fill="url(#linearGradient-2)" fill-rule="nonzero"></path>
        </g>
    </g>
</svg>